<svg width="25" height="25" viewBox="0 0 25 25" fill="none" xmlns="http://www.w3.org/2000/svg">
<path fill-rule="evenodd" clip-rule="evenodd" d="M2 0C0.895431 0 0 0.89543 0 2V9.16025H4C4.55228 9.16025 5 8.71254 5 8.16025V7.4641C5 5.9245 6.66667 4.96225 8 5.73205L18.5 11.7942C19.1667 12.1791 19.1667 13.1414 18.5 13.5263L8 19.5885C6.66667 20.3583 5 19.396 5 17.8564V17.1603C5 16.608 4.55228 16.1603 4 16.1603H0V23C0 24.1046 0.89543 25 2 25H23C24.1046 25 25 24.1046 25 23V2C25 0.895431 24.1046 0 23 0H2Z" fill="#5B5B5B"/>
</svg>
