<svg width="200" height="200" viewBox="0 0 200 200" fill="none" xmlns="http://www.w3.org/2000/svg">
<mask id="mask0_144_95" style="mask-type:alpha" maskUnits="userSpaceOnUse" x="0" y="0" width="200" height="200">
<rect width="200" height="200" rx="16" fill="#D9D9D9"/>
</mask>
<g mask="url(#mask0_144_95)">
<rect width="200" height="200" fill="#FDFDFD"/>
<path d="M0 96.1528C23.3948 72.2816 31.7895 95.2909 49.9401 96.1528C73.7736 73.7926 80.461 95.2306 99.8802 96.1528C123.714 73.7926 130.401 95.2306 149.82 96.1528C172.983 88.3509 175.79 75.9131 199.76 96.1528V199.735H0V96.1528Z" fill="url(#paint0_linear_144_95)" stroke="#D1D1D1" stroke-width="0.248388" stroke-linecap="square"/>
<path d="M61.3808 65.2132C59.4187 69.0099 60.0117 76.4886 59.8242 79.5072C59.7261 81.0865 59.2558 84.028 59.4187 85.4523C59.4836 86.0201 60.912 87.1448 61.3808 87.9308C62.3499 89.5553 60.5693 93.3125 60.5693 94.2515C60.5693 95.9416 58.5827 100.1 57.4582 102.97C56.6481 105.039 58.1312 107.006 59.6819 107.201C61.0362 107.371 63.0685 107.587 63.8478 107.693L67.6826 114.065C66.5483 114.626 65.9485 117.726 67.556 117.917L91.9177 127.217L99.7233 134.643L127.961 126.288H139.669L140.93 120.772L133.313 113.391L127.089 95.2704L120.669 70.7564L110.962 63.4043L90.0678 59.0475L67.5424 55.9548L61.3808 65.2132Z" fill="#D3A58E"/>
<path d="M69.0548 134.151C68.5754 132.479 70.564 124.81 67.556 117.917C70.8084 117.32 71.4716 117.141 73.3651 115.52C72.5194 114.763 72.1489 114.286 71.6813 113.852C69.22 113.64 64.4742 114.305 63.1531 112.331C61.5618 109.296 64.2283 106.664 66.816 107.144C67.6839 107.305 67.8894 108.898 68.6902 109.192C69.6843 109.557 70.6712 108.515 71.8646 109.535C73.058 110.555 74.5334 112.855 75.8677 114.515C89.3766 105.314 87.9904 99.1179 91.007 85.2263C93.9009 91.3195 99.198 101.819 100.895 106.102C103.856 113.576 95.5499 124.107 90.8747 129.181C86.8265 133.575 82.7562 138.311 76.834 138.939C73.271 139.223 69.7089 136.433 69.0548 134.151Z" fill="url(#paint1_linear_144_95)"/>
<path d="M69.0548 134.151C68.5754 132.479 70.564 124.81 67.556 117.917C70.8084 117.32 71.4716 117.141 73.3651 115.52C72.5194 114.763 72.1489 114.286 71.6813 113.852C69.22 113.64 64.4742 114.305 63.1531 112.331C61.5618 109.296 64.2283 106.664 66.816 107.144C67.6839 107.305 67.8894 108.898 68.6902 109.192C69.6843 109.557 70.6712 108.515 71.8646 109.535C73.058 110.555 74.5334 112.855 75.8677 114.515C89.3766 105.314 87.9904 99.1179 91.007 85.2263C93.9009 91.3195 99.198 101.819 100.895 106.102C103.856 113.576 95.5499 124.107 90.8747 129.181C86.8265 133.575 82.7562 138.311 76.834 138.939C73.271 139.223 69.7089 136.433 69.0548 134.151V134.151Z" stroke="black" stroke-width="0.214968" stroke-linecap="square"/>
<path d="M74.2189 199.009C74.5942 192.788 75.91 186.678 78.3477 181.142C83.1224 170.299 99.958 146.788 99.958 146.788L128.375 126.392C131.74 125.174 135.218 124.965 138.64 124.671C149.064 136.226 153.72 142.825 159.207 153.356C161.952 158.624 164.911 168.509 166.477 173.624L166.416 199.129L74.2189 199.009Z" fill="#C62424"/>
<path d="M161.804 198.629C166.253 190.242 141.786 165.411 129.435 161.596C115.632 162.043 110.304 166.675 104.752 171.598" stroke="#2B2C31" stroke-width="0.420884" stroke-linecap="square"/>
<path d="M131.557 130.723C130.196 131.333 132.117 146.674 128.439 161.624" stroke="#2B2C31" stroke-width="0.420884" stroke-linecap="square"/>
<path d="M131.217 160.421C133.657 147.829 132.507 140.748 133.161 130.709" stroke="#2B2C31" stroke-width="0.420884" stroke-linecap="square"/>
<path d="M144.799 131.815C139.337 131.582 133.303 129.97 128.413 131.118" stroke="#2B2C31" stroke-width="0.420884" stroke-linecap="square"/>
<path d="M143.322 130.03C138.619 129.857 133.648 128.236 129.214 129.511" stroke="#2B2C31" stroke-width="0.420884" stroke-linecap="square"/>
<path opacity="0.207123" d="M106.855 160.952C97.1486 170.31 90.9223 180.491 93.8763 192.859C91.8154 188.653 88.0121 189.79 89.1648 197.657L88.35 197.008C87.2876 192.811 86.2453 188.105 86.2453 182.64C85.1259 188.236 85.9703 191.115 87.602 195.354C82.3819 191.519 79.2993 187.527 80.4982 183.875C80.2662 183.811 80.0341 183.747 79.8021 183.683C78.4979 186.861 81.2802 192.198 87.6259 195.417C87.8044 195.88 87.9999 196.383 88.1954 196.885L84.6398 194.051L81.0655 198.996H97.6541C96.7447 195.456 97.1967 189.481 100.659 184.737C96.0113 185.977 95.1962 188.872 95.3832 193.7C93.1405 187.112 100.659 176.395 106.688 170.556C100.364 172.546 98.5735 175.927 96.102 184.022C96.7783 176.229 103.093 169.101 106.855 160.952Z" fill="black"/>
<path d="M74.2189 199.009C74.5942 192.788 75.91 186.678 78.3477 181.142C83.1224 170.299 99.958 146.788 99.958 146.788L128.375 126.392C131.74 125.174 135.218 124.965 138.64 124.671C149.064 136.226 153.72 142.825 159.207 153.356C161.952 158.624 164.911 168.509 166.477 173.624L166.416 199.129L74.2189 199.009Z" stroke="black" stroke-width="0.214968" stroke-linecap="square"/>
<path d="M60.628 67.8674C59.5585 56.3706 63.6489 52.1636 65.6331 49.1753C68.7735 44.4456 81.1066 39.449 85.3 38.6027C94.4427 36.7576 102.559 39.2485 112.621 44.7146C115.339 46.1912 120.005 50.4899 120.005 50.4899L123.081 49.9124L124.547 48.5878C130.786 41.1647 140.372 43.0746 142.329 50.3159C144.378 57.8975 140.956 63.6195 127.403 59.5622L128.891 61.5449C132.095 61.8458 134.709 61.9652 136.44 64.6496C134.213 63.5881 132.688 62.4973 130.245 63.2469L131.499 63.9037L135.194 61.1678L132.141 65.6065L132.388 65.9453L135.228 64.694L132.878 66.255L135.381 65.8925L132.953 66.7379L134.047 69.092L134.914 69.5997C139.572 69.7255 140.29 68.0718 146.553 67.4567C142.723 68.6167 141.682 69.6138 139.246 70.6924C140.383 70.6217 140.438 70.9989 142.844 69.6809C139.738 72.132 136.217 72.0208 134.474 70.9939L133.805 74.6998L140.715 72.262L135.045 75.4848C138.909 76.6058 144.244 77.3418 147.31 73.2469L144.223 77.3678L148.671 76.3844C142.821 78.9031 141.116 79.0611 135.732 77.9552C137.822 79.1161 139.772 80.8829 142.002 81.4379C138.807 81.634 136.391 79.0761 133.586 77.8952C136.103 79.8413 137.04 81.7094 141.136 83.7334C137.204 82.8594 135.354 80.2248 132.463 78.4705L133.547 79.8259L131.679 78.9544L134.578 81.3119L131.05 80.7813C134.359 82.7328 135.068 86.9487 140.977 86.6358C136.517 88.6503 133.301 85.8175 129.8 83.6613C129.8 83.6613 140.547 109.957 145.703 116.711C150.859 123.465 153.415 122.618 156.748 126.197C161.275 131.058 159.71 141.774 154.332 145.138C147.076 133.604 139.993 125.655 132.195 119.611C128.855 135.162 121.516 142.042 113.371 150.844L105.564 159.281C93.9132 160.107 91.9374 152.672 91.728 149.174C91.5187 145.676 91.892 145.408 91.892 145.408C90.0136 146.796 85.5494 148.932 83.3282 146.285C85.5444 147.473 89.8608 146.724 91.9869 144.088L95.0441 136.781L94.1521 136.109C86.0118 145.174 85.6104 155.447 88.0646 157.57C85.9217 156.407 82.7286 147.892 93.3462 135.151C106.759 119.057 109.708 109.168 109.437 101.046L114.001 97.4084L109.632 98.4461L112.755 97.0762L110.365 97.1019C113.112 94.1456 114.124 87.711 110.959 83.1369C111.105 79.8717 109.022 76.3879 105.439 75.9304C103.322 75.8742 101.195 77.713 99.6372 79.3173C97.306 81.7172 94.9713 85.5049 94.7816 93.9068C94.7816 93.9068 89.8079 80.8097 84.6059 77.1581C81.4636 74.9524 73.4899 75.1577 73.4899 75.1577C78.2183 56.0092 102.229 68.6145 111.409 71.3598C108.779 68.5808 106.073 68.4105 105.337 66.6867C101.484 67.4987 97.1665 66.6645 94.7428 64.5225C91.7462 65.8952 81.8243 62.2196 79.0903 61.4035C72.8183 59.5312 64.0763 64.6364 60.628 67.8674Z" fill="#2B2C31"/>
<path d="M60.628 67.8674C59.5585 56.3706 63.6489 52.1636 65.6331 49.1753C68.7735 44.4456 81.1066 39.449 85.3 38.6027C94.4427 36.7576 102.559 39.2485 112.621 44.7146C115.339 46.1912 120.005 50.4899 120.005 50.4899L123.081 49.9124L124.547 48.5878C130.786 41.1647 140.372 43.0746 142.329 50.3159C144.378 57.8975 140.956 63.6195 127.403 59.5622L128.891 61.5449C132.095 61.8458 134.709 61.9652 136.44 64.6496C134.213 63.5881 132.688 62.4973 130.245 63.2469L131.499 63.9037L135.194 61.1678L132.141 65.6065L132.388 65.9453L135.228 64.6941L132.878 66.255L135.381 65.8925L132.953 66.7379L134.047 69.092L134.914 69.5997C139.572 69.7255 140.29 68.0718 146.553 67.4567C142.723 68.6167 141.682 69.6138 139.246 70.6924C140.383 70.6217 140.438 70.9989 142.844 69.6809C139.738 72.132 136.217 72.0208 134.474 70.9939L133.805 74.6998L140.715 72.262L135.045 75.4848C138.909 76.6058 144.244 77.3418 147.31 73.2469L144.223 77.3678L148.671 76.3844C142.821 78.9031 141.116 79.0611 135.732 77.9552C137.822 79.1161 139.772 80.8829 142.002 81.4379C138.807 81.634 136.391 79.0761 133.586 77.8952C136.103 79.8413 137.04 81.7094 141.136 83.7334C137.204 82.8594 135.354 80.2248 132.463 78.4705L133.547 79.8259L131.679 78.9544L134.578 81.3119L131.05 80.7813C134.359 82.7328 135.068 86.9487 140.977 86.6358C136.517 88.6503 133.301 85.8175 129.8 83.6613C129.8 83.6613 140.547 109.957 145.703 116.711C150.859 123.465 153.415 122.618 156.748 126.197C161.275 131.058 159.71 141.774 154.332 145.138C147.076 133.604 139.993 125.655 132.195 119.611C128.855 135.162 121.516 142.042 113.371 150.844L105.564 159.281C93.9132 160.107 91.9374 152.672 91.728 149.174C91.5187 145.676 91.892 145.408 91.892 145.408C90.0136 146.796 85.5494 148.932 83.3282 146.285C85.5444 147.473 89.8608 146.724 91.9869 144.088L95.0441 136.781L94.1521 136.109C86.0118 145.174 85.6104 155.447 88.0646 157.57C85.9217 156.407 82.7286 147.892 93.3462 135.151C106.759 119.057 109.708 109.168 109.437 101.046L114.001 97.4084L109.632 98.4461L112.755 97.0762L110.365 97.1019C113.112 94.1456 114.124 87.711 110.959 83.1369C111.105 79.8717 109.022 76.3879 105.439 75.9304C103.322 75.8742 101.195 77.713 99.6372 79.3173C97.306 81.7172 94.9713 85.5049 94.7816 93.9068C94.7816 93.9068 89.8079 80.8097 84.6059 77.1581C81.4636 74.9524 73.4899 75.1577 73.4899 75.1577C78.2183 56.0092 102.229 68.6145 111.409 71.3598C108.779 68.5808 106.073 68.4105 105.337 66.6867C101.484 67.4987 97.1665 66.6645 94.7428 64.5225C91.7462 65.8952 81.8243 62.2196 79.0903 61.4035C72.8183 59.5312 64.0763 64.6364 60.628 67.8674V67.8674Z" stroke="black" stroke-width="0.214968" stroke-linecap="square"/>
<path d="M60.8713 85.9034C61.3542 86.8465 61.7508 87.389 62.9798 88.011C65.8797 85.6558 66.6653 82.6804 77.2908 84.2206C64.9042 80.3612 63.7398 85.5858 60.8713 85.9034Z" fill="#615043"/>
<path opacity="0.407039" d="M60.8713 85.9034C61.3542 86.8465 61.7508 87.389 62.9798 88.011C65.8797 85.6558 66.6653 82.6804 77.2908 84.2206C64.9042 80.3612 63.7398 85.5858 60.8713 85.9034Z" stroke="black" stroke-width="0.214968" stroke-linecap="square"/>
<path d="M69.4482 89.9953C68.7366 89.6606 68.5818 88.8271 68.7366 87.8119C70.1254 87.6902 71.872 88.0593 72.9327 88.2772C72.613 88.529 70.6865 89.6496 69.4482 89.9953Z" fill="#EFEFF1"/>
<path d="M69.815 89.5023C69.1615 89.354 68.8156 88.634 68.8898 88.0979C68.9393 87.7399 69.5164 87.7 69.8335 87.8238C69.9212 88.2176 69.9801 88.8839 69.815 89.5023Z" fill="black"/>
<path d="M72.9483 88.4502L75.0213 88.4964C73.1126 88.2873 70.9733 87.6825 69.2718 87.6767V87.6767C68.0624 87.647 66.7999 88.033 65.879 88.5849C66.9358 88.0677 68.1683 87.9078 69.2725 87.8994C70.4282 87.8928 71.719 88.1435 72.6452 88.3328C72.2381 88.6215 70.5745 89.6544 69.45 89.9956C71.3114 89.6048 72.6965 88.4445 72.9483 88.4502Z" fill="black" stroke="black" stroke-width="0.071656" stroke-miterlimit="7" stroke-linecap="square"/>
<path d="M67.3765 86.8467L74.4091 87.3891L67.3765 86.8467Z" fill="#2B2C31"/>
<path d="M60.933 106.436C61.368 105.756 61.8734 105.288 62.9564 105.236C64.0393 105.185 65.044 105.667 66.0879 105.883C65.1284 105.991 63.8846 105.428 63.2194 106.143C62.9104 106.476 61.9914 106.044 60.933 106.436Z" fill="#2B2C31"/>
<path d="M92.011 38.0106C89.8072 37.9511 87.5856 38.1415 85.3 38.6027C81.1065 39.449 68.7735 44.4457 65.6331 49.1753C63.6763 52.1224 59.6813 56.269 60.5967 67.4091C59.6012 71.4058 59.9802 76.9964 59.8243 79.5072C59.7262 81.0865 59.2558 84.028 59.4187 85.4523C59.4836 86.0201 60.912 87.1449 61.3809 87.9309C62.35 89.5554 60.5694 93.3125 60.5694 94.2515C60.5694 95.9416 58.5827 100.1 57.4582 102.971C56.648 105.039 58.1313 107.006 59.682 107.201C61.0363 107.371 63.0686 107.587 63.8479 107.693L63.9643 107.887C62.784 108.831 62.1958 110.505 63.1531 112.331C63.8813 113.419 65.6526 113.698 67.5056 113.771L67.6827 114.065C66.5483 114.626 65.9486 117.726 67.5561 117.917C70.5641 124.81 68.5755 132.478 69.0549 134.151C69.709 136.433 73.2711 139.223 76.834 138.939C82.7563 138.311 86.8265 133.575 90.8748 129.181C91.3129 128.706 91.8053 128.14 92.2949 127.575L96.3405 131.425C95.399 132.633 94.4175 133.866 93.3462 135.151C89.6488 139.588 87.651 143.497 86.6756 146.777C85.409 146.909 84.2038 146.755 83.3283 146.285C84.144 147.257 85.264 147.576 86.4455 147.532C84.975 153.242 86.7248 156.843 88.0645 157.57C86.6313 156.33 86.1872 152.304 87.6742 147.369C89.3252 147.001 90.9404 146.111 91.892 145.408C91.892 145.408 91.5187 145.676 91.7281 149.174C91.8255 150.803 92.322 153.281 93.9843 155.385C88.6538 163.216 81.2633 174.521 78.3478 181.142C75.9101 186.678 74.5942 192.788 74.219 199.009L166.416 199.129L166.477 173.624C164.911 168.509 161.952 158.624 159.207 153.356C157.624 150.316 156.097 147.617 154.494 145.019C159.736 141.539 161.227 131.007 156.748 126.197C153.416 122.618 150.859 123.465 145.703 116.711C140.547 109.957 129.8 83.6613 129.8 83.6613C133.301 85.8175 136.517 88.6503 140.977 86.6358C135.068 86.9487 134.359 82.7328 131.05 80.7813L134.578 81.312L131.679 78.9545L133.547 79.826L132.463 78.4705C135.354 80.2248 137.204 82.8595 141.136 83.7335C137.04 81.7095 136.103 79.8413 133.586 77.8953C136.391 79.0762 138.807 81.634 142.002 81.438C139.772 80.8829 137.822 79.1163 135.732 77.9554C141.116 79.0612 142.821 78.9031 148.671 76.3844L144.223 77.3678L147.31 73.247C144.244 77.3419 138.909 76.6059 135.045 75.4849L140.715 72.2621L133.805 74.6998L134.474 70.9939C136.217 72.0209 139.739 72.132 142.844 69.6809C140.438 70.9989 140.383 70.6218 139.246 70.6924C141.682 69.6139 142.723 68.6168 146.553 67.4568C140.29 68.0718 139.572 69.7255 134.914 69.5996L134.047 69.092L132.953 66.738L135.38 65.8924L132.878 66.2551L135.228 64.6941L132.388 65.9453L132.141 65.6066L133.676 63.3751C134.554 63.694 135.423 64.165 136.44 64.6496C135.808 63.6699 135.056 63.0376 134.204 62.6077L135.194 61.1679L133.594 62.3524C132.236 61.8368 130.657 61.7107 128.891 61.5448L127.403 59.5623C140.956 63.6195 144.378 57.8975 142.329 50.3159C140.372 43.0746 130.786 41.1647 124.547 48.5878L123.081 49.9125L120.005 50.4899C120.005 50.4899 115.339 46.1913 112.621 44.7147C105.074 40.6151 98.6224 38.189 92.011 38.0106V38.0106ZM131.93 63.0006C132.166 63.0066 132.394 63.0353 132.62 63.0738L131.499 63.9038L130.245 63.2469C130.856 63.0595 131.409 62.9871 131.93 63.0006ZM94.152 136.109L95.0442 136.781L91.9869 144.088C90.9768 145.34 89.4702 146.152 87.9313 146.548C89.0517 143.242 91.0277 139.588 94.152 136.109V136.109Z" stroke="#131313" stroke-width="0.71656" stroke-linecap="square"/>
</g>
<defs>
<linearGradient id="paint0_linear_144_95" x1="93.0091" y1="199.726" x2="94.2326" y2="96.0418" gradientUnits="userSpaceOnUse">
<stop stop-color="#565656"/>
<stop offset="1" stop-color="#C9C9C9" stop-opacity="0.282641"/>
</linearGradient>
<linearGradient id="paint1_linear_144_95" x1="65.3363" y1="107.542" x2="91.4466" y2="128.396" gradientUnits="userSpaceOnUse">
<stop stop-color="#635244"/>
<stop offset="1" stop-color="#2B2C31"/>
</linearGradient>
</defs>
</svg>
